<svg xmlns="http://www.w3.org/2000/svg" viewBox="0 0 800 500" width="800" height="500" font-family="Segoe UI, system-ui, sans-serif">
  <rect width="800" height="500" fill="#0a0d15"/>
  <!-- photon sphere (1.5 rs) and shadow critical curve (b_c=2.6 rs) -->
  <circle cx="400" cy="250" r="22.5" fill="none" stroke="#6b7585" stroke-width="1" stroke-dasharray="4 4" opacity="0.8"/>
  <circle cx="400" cy="250" r="39.0" fill="none" stroke="#9aa4b2" stroke-width="1" stroke-dasharray="2 5" opacity="0.5"/>
  <path d="M -38.0 145.0 L -32.0 145.0 L -25.9 145.0 L -19.9 145.0 L -13.9 145.0 L -7.9 145.0 L -1.9 145.0 L 4.1 145.0 L 10.1 145.0 L 16.1 145.0 L 22.1 145.0 L 28.1 145.0 L 34.1 145.0 L 40.1 145.0 L 46.1 145.0 L 52.1 145.0 L 58.1 145.0 L 64.1 145.0 L 70.2 145.0 L 76.2 145.0 L 82.2 145.0 L 88.2 145.0 L 94.2 145.0 L 100.2 145.1 L 106.2 145.1 L 112.2 145.1 L 118.3 145.1 L 124.3 145.1 L 130.3 145.1 L 136.3 145.1 L 142.3 145.1 L 148.4 145.1 L 154.4 145.1 L 160.4 145.1 L 166.4 145.1 L 172.5 145.1 L 178.5 145.1 L 184.5 145.1 L 190.6 145.2 L 196.6 145.2 L 202.6 145.2 L 208.7 145.2 L 214.7 145.2 L 220.8 145.3 L 226.8 145.3 L 232.9 145.3 L 239.0 145.3 L 245.0 145.4 L 251.1 145.4 L 257.2 145.4 L 263.3 145.5 L 269.4 145.5 L 275.5 145.6 L 281.6 145.7 L 287.7 145.8 L 293.9 145.8 L 300.0 145.9 L 306.2 146.1 L 312.4 146.2 L 318.6 146.4 L 324.8 146.5 L 331.0 146.7 L 337.3 147.0 L 343.6 147.2 L 349.7 147.6 L 355.7 147.9 L 361.6 148.3 L 367.4 148.7 L 373.1 149.2 L 378.6 149.7 L 384.1 150.2 L 389.5 150.8 L 394.9 151.5 L 400.2 152.2 L 405.4 153.0 L 410.6 153.9 L 415.8 154.8 L 421.0 155.7 L 426.1 156.8 L 431.3 157.9 L 436.4 159.0 L 441.6 160.3 L 446.8 161.6 L 452.0 162.9 L 457.2 164.4 L 462.5 165.9 L 467.9 167.5 L 473.3 169.2 L 478.8 170.9 L 484.4 172.7 L 490.2 174.6 L 496.0 176.5 L 501.9 178.6 L 507.8 180.6 L 513.7 182.7 L 519.5 184.8 L 525.3 186.9 L 531.1 189.0 L 536.9 191.1 L 542.7 193.2 L 548.4 195.3 L 554.1 197.5 L 559.9 199.6 L 565.6 201.8 L 571.3 203.9 L 577.0 206.0 L 582.6 208.2 L 588.3 210.3 L 594.0 212.5 L 599.7 214.6 L 605.3 216.8 L 611.0 219.0 L 616.6 221.1 L 622.3 223.3 L 627.9 225.4 L 633.6 227.6 L 639.2 229.7 L 644.8 231.9 L 650.5 234.0 L 656.1 236.2 L 661.7 238.4 L 667.3 240.5 L 673.0 242.7 L 678.6 244.8 L 684.2 247.0 L 689.8 249.1 L 695.4 251.3 L 701.1 253.5 L 706.7 255.6 L 712.3 257.8 L 717.9 259.9 L 723.5 262.1 L 729.1 264.2 L 734.7 266.4 L 740.3 268.6 L 746.0 270.7 L 751.6 272.9 L 757.2 275.0 L 762.8 277.2 L 768.4 279.3 L 774.0 281.5 L 779.6 283.7 L 785.2 285.8 L 790.8 288.0 L 796.4 290.1 L 802.0 292.3 L 807.6 294.4 L 813.2 296.6 L 818.8 298.8 L 824.4 300.9 L 830.1 303.1 L 835.7 305.2" fill="none" stroke="#2ed3c6" stroke-width="2.2" opacity="0.9" stroke-linecap="round"/>
  <path d="M -38.0 160.0 L -32.0 160.0 L -26.0 160.0 L -20.0 160.0 L -14.0 160.0 L -8.0 160.0 L -1.9 160.0 L 4.1 160.0 L 10.1 160.0 L 16.1 160.0 L 22.1 160.0 L 28.1 160.0 L 34.1 160.0 L 40.1 160.0 L 46.1 160.0 L 52.1 160.0 L 58.1 160.0 L 64.1 160.0 L 70.1 160.0 L 76.1 160.0 L 82.1 160.0 L 88.1 160.0 L 94.2 160.0 L 100.2 160.0 L 106.2 160.0 L 112.2 160.0 L 118.2 160.0 L 124.2 160.0 L 130.2 160.0 L 136.2 160.1 L 142.3 160.1 L 148.3 160.1 L 154.3 160.1 L 160.3 160.1 L 166.3 160.1 L 172.4 160.1 L 178.4 160.1 L 184.4 160.1 L 190.4 160.1 L 196.5 160.1 L 202.5 160.1 L 208.5 160.1 L 214.6 160.2 L 220.6 160.2 L 226.7 160.2 L 232.7 160.2 L 238.8 160.2 L 244.8 160.3 L 250.9 160.3 L 257.0 160.3 L 263.0 160.3 L 269.1 160.4 L 275.2 160.4 L 281.3 160.5 L 287.4 160.5 L 293.6 160.6 L 299.7 160.7 L 305.8 160.8 L 312.0 160.9 L 318.2 161.0 L 324.4 161.2 L 330.5 161.4 L 336.4 161.6 L 342.1 161.8 L 347.6 162.0 L 353.0 162.3 L 358.3 162.6 L 363.4 163.0 L 368.5 163.4 L 373.4 163.8 L 378.3 164.3 L 383.1 164.8 L 387.8 165.4 L 392.4 166.0 L 397.0 166.7 L 401.5 167.4 L 406.0 168.2 L 410.4 169.1 L 414.9 170.0 L 419.2 171.0 L 423.6 172.1 L 428.0 173.2 L 432.3 174.4 L 436.7 175.7 L 441.0 177.0 L 445.4 178.4 L 449.8 179.9 L 454.2 181.4 L 458.7 183.0 L 463.2 184.7 L 467.8 186.5 L 472.4 188.3 L 477.1 190.2 L 481.8 192.2 L 486.7 194.3 L 491.7 196.4 L 496.8 198.7 L 502.0 201.0 L 507.3 203.4 L 512.9 205.9 L 518.5 208.5 L 524.1 211.1 L 529.7 213.7 L 535.2 216.3 L 540.7 218.9 L 546.3 221.6 L 551.8 224.2 L 557.3 226.8 L 562.8 229.4 L 568.3 232.1 L 573.7 234.7 L 579.2 237.3 L 584.7 239.9 L 590.1 242.6 L 595.6 245.2 L 601.0 247.8 L 606.4 250.4 L 611.9 253.1 L 617.3 255.7 L 622.7 258.3 L 628.2 261.0 L 633.6 263.6 L 639.0 266.2 L 644.4 268.8 L 649.9 271.5 L 655.3 274.1 L 660.7 276.7 L 666.1 279.3 L 671.5 282.0 L 676.9 284.6 L 682.3 287.2 L 687.8 289.8 L 693.2 292.5 L 698.6 295.1 L 704.0 297.7 L 709.4 300.3 L 714.8 303.0 L 720.2 305.6 L 725.6 308.2 L 731.0 310.8 L 736.4 313.5 L 741.8 316.1 L 747.2 318.7 L 752.6 321.3 L 758.0 324.0 L 763.4 326.6 L 768.8 329.2 L 774.2 331.8 L 779.6 334.5 L 785.0 337.1 L 790.4 339.7 L 795.8 342.3 L 801.2 345.0 L 806.6 347.6 L 812.0 350.2 L 817.4 352.8 L 822.8 355.5 L 828.2 358.1 L 833.6 360.7 L 839.0 363.3" fill="none" stroke="#2ed3c6" stroke-width="2.2" opacity="0.9" stroke-linecap="round"/>
  <path d="M -38.0 175.0 L -32.0 175.0 L -26.0 175.0 L -20.0 175.0 L -14.0 175.0 L -8.0 175.0 L -2.0 175.0 L 4.0 175.0 L 10.0 175.0 L 16.0 175.0 L 22.0 175.0 L 28.1 175.0 L 34.1 175.0 L 40.1 175.0 L 46.1 175.0 L 52.1 175.0 L 58.1 175.0 L 64.1 175.0 L 70.1 175.0 L 76.1 175.0 L 82.1 175.0 L 88.1 175.0 L 94.1 175.0 L 100.1 175.0 L 106.1 175.0 L 112.1 175.0 L 118.1 175.0 L 124.2 175.0 L 130.2 175.0 L 136.2 175.0 L 142.2 175.0 L 148.2 175.0 L 154.2 175.0 L 160.2 175.0 L 166.2 175.0 L 172.3 175.1 L 178.3 175.1 L 184.3 175.1 L 190.3 175.1 L 196.3 175.1 L 202.4 175.1 L 208.4 175.1 L 214.4 175.1 L 220.5 175.1 L 226.5 175.1 L 232.5 175.1 L 238.6 175.1 L 244.6 175.2 L 250.7 175.2 L 256.7 175.2 L 262.8 175.2 L 268.8 175.2 L 274.9 175.3 L 281.0 175.3 L 287.1 175.4 L 293.2 175.4 L 299.3 175.5 L 305.5 175.5 L 311.6 175.6 L 317.6 175.7 L 323.3 175.8 L 328.8 176.0 L 334.1 176.1 L 339.3 176.3 L 344.3 176.5 L 349.2 176.7 L 353.9 176.9 L 358.5 177.2 L 363.0 177.5 L 367.4 177.8 L 371.6 178.2 L 375.8 178.6 L 380.0 179.0 L 384.0 179.5 L 388.0 180.1 L 391.9 180.7 L 395.7 181.3 L 399.5 182.0 L 403.3 182.8 L 407.0 183.6 L 410.7 184.5 L 414.3 185.5 L 417.9 186.5 L 421.5 187.6 L 425.1 188.8 L 428.6 190.1 L 432.1 191.4 L 435.7 192.7 L 439.2 194.2 L 442.7 195.7 L 446.2 197.3 L 449.7 199.0 L 453.3 200.7 L 456.8 202.5 L 460.4 204.4 L 464.1 206.4 L 467.7 208.4 L 471.5 210.5 L 475.2 212.7 L 479.1 215.0 L 483.0 217.3 L 487.0 219.8 L 491.2 222.3 L 495.4 225.0 L 499.7 227.7 L 504.2 230.6 L 508.8 233.5 L 513.5 236.6 L 518.5 239.8 L 523.6 243.1 L 528.7 246.4 L 533.8 249.8 L 538.9 253.2 L 544.0 256.5 L 549.0 259.9 L 554.1 263.2 L 559.1 266.6 L 564.2 269.9 L 569.2 273.3 L 574.3 276.6 L 579.3 280.0 L 584.3 283.3 L 589.3 286.7 L 594.4 290.0 L 599.4 293.4 L 604.4 296.7 L 609.4 300.1 L 614.4 303.4 L 619.4 306.8 L 624.4 310.1 L 629.4 313.5 L 634.4 316.8 L 639.4 320.2 L 644.4 323.5 L 649.4 326.8 L 654.4 330.2 L 659.4 333.5 L 664.4 336.9 L 669.4 340.2 L 674.4 343.6 L 679.4 346.9 L 684.4 350.2 L 689.4 353.6 L 694.4 356.9 L 699.4 360.3 L 704.3 363.6 L 709.3 367.0 L 714.3 370.3 L 719.3 373.6 L 724.3 377.0 L 729.3 380.3 L 734.3 383.7 L 739.3 387.0 L 744.3 390.3 L 749.2 393.7 L 754.2 397.0 L 759.2 400.4 L 764.2 403.7 L 769.2 407.1 L 774.2 410.4 L 779.2 413.7 L 784.2 417.1 L 789.1 420.4 L 794.1 423.8 L 799.1 427.1 L 804.1 430.4 L 809.1 433.8 L 814.1 437.1" fill="none" stroke="#2ed3c6" stroke-width="2.2" opacity="0.9" stroke-linecap="round"/>
  <path d="M -38.0 190.0 L -32.0 190.0 L -26.0 190.0 L -20.0 190.0 L -14.0 190.0 L -8.0 190.0 L -2.0 190.0 L 4.0 190.0 L 10.0 190.0 L 16.0 190.0 L 22.0 190.0 L 28.0 190.0 L 34.0 190.0 L 40.0 190.0 L 46.0 190.0 L 52.0 190.0 L 58.0 190.0 L 64.1 190.0 L 70.1 190.0 L 76.1 190.0 L 82.1 190.0 L 88.1 190.0 L 94.1 190.0 L 100.1 190.0 L 106.1 190.0 L 112.1 190.0 L 118.1 190.0 L 124.1 190.0 L 130.1 190.0 L 136.1 190.0 L 142.1 190.0 L 148.1 190.0 L 154.1 190.0 L 160.1 190.0 L 166.2 190.0 L 172.2 190.0 L 178.2 190.0 L 184.2 190.0 L 190.2 190.0 L 196.2 190.0 L 202.2 190.0 L 208.3 190.0 L 214.3 190.1 L 220.3 190.1 L 226.3 190.1 L 232.4 190.1 L 238.4 190.1 L 244.4 190.1 L 250.5 190.1 L 256.5 190.1 L 262.5 190.1 L 268.6 190.1 L 274.6 190.2 L 280.7 190.2 L 286.8 190.2 L 292.9 190.2 L 299.0 190.3 L 304.9 190.3 L 310.6 190.4 L 316.1 190.4 L 321.4 190.5 L 326.5 190.6 L 331.4 190.7 L 336.1 190.8 L 340.6 190.9 L 345.0 191.0 L 349.2 191.2 L 353.4 191.3 L 357.3 191.5 L 361.2 191.8 L 365.0 192.0 L 368.7 192.3 L 372.2 192.6 L 375.7 192.9 L 379.2 193.3 L 382.5 193.8 L 385.8 194.2 L 389.0 194.8 L 392.2 195.3 L 395.3 196.0 L 398.4 196.7 L 401.4 197.4 L 404.4 198.2 L 407.3 199.1 L 410.2 200.0 L 413.1 201.1 L 415.9 202.1 L 418.7 203.3 L 421.4 204.5 L 424.1 205.8 L 426.8 207.2 L 429.4 208.6 L 432.0 210.1 L 434.6 211.7 L 437.2 213.4 L 439.7 215.1 L 442.2 216.9 L 444.7 218.8 L 447.1 220.7 L 449.6 222.7 L 452.0 224.8 L 454.5 226.9 L 457.0 229.1 L 459.4 231.4 L 461.9 233.8 L 464.4 236.2 L 466.9 238.8 L 469.5 241.4 L 472.1 244.1 L 474.8 246.9 L 477.5 249.8 L 480.3 252.7 L 483.1 255.8 L 486.0 259.1 L 489.1 262.4 L 492.2 265.9 L 495.4 269.5 L 498.7 273.2 L 502.1 277.1 L 505.7 281.1 L 509.4 285.3 L 513.2 289.7 L 517.2 294.3 L 521.2 298.9 L 525.2 303.5 L 529.2 308.1 L 533.2 312.6 L 537.1 317.2 L 541.1 321.8 L 545.0 326.3 L 549.0 330.9 L 552.9 335.4 L 556.9 340.0 L 560.8 344.6 L 564.8 349.1 L 568.7 353.7 L 572.7 358.2 L 576.6 362.8 L 580.5 367.3 L 584.5 371.9 L 588.4 376.4 L 592.3 381.0 L 596.3 385.5 L 600.2 390.1 L 604.1 394.6 L 608.0 399.2 L 612.0 403.7 L 615.9 408.3 L 619.8 412.8 L 623.7 417.3 L 627.7 421.9 L 631.6 426.4 L 635.5 431.0 L 639.5 435.5 L 643.4 440.1 L 647.3 444.6 L 651.2 449.2 L 655.2 453.7 L 659.1 458.2 L 663.0 462.8 L 666.9 467.3 L 670.8 471.9 L 674.8 476.4 L 678.7 481.0 L 682.6 485.5 L 686.5 490.1 L 690.5 494.6 L 694.4 499.1 L 698.3 503.7 L 702.2 508.2 L 706.2 512.8 L 710.1 517.3 L 714.0 521.9 L 717.9 526.4 L 721.8 530.9 L 725.8 535.5" fill="none" stroke="#2ed3c6" stroke-width="2.2" opacity="0.9" stroke-linecap="round"/>
  <path d="M -38.0 205.0 L -32.0 205.0 L -26.0 205.0 L -20.0 205.0 L -14.0 205.0 L -8.0 205.0 L -2.0 205.0 L 4.0 205.0 L 10.0 205.0 L 16.0 205.0 L 22.0 205.0 L 28.0 205.0 L 34.0 205.0 L 40.0 205.0 L 46.0 205.0 L 52.0 205.0 L 58.0 205.0 L 64.0 205.0 L 70.0 205.0 L 76.0 205.0 L 82.0 205.0 L 88.0 205.0 L 94.0 205.0 L 100.0 205.0 L 106.0 205.0 L 112.1 205.0 L 118.1 205.0 L 124.1 205.0 L 130.1 205.0 L 136.1 205.0 L 142.1 205.0 L 148.1 205.0 L 154.1 205.0 L 160.1 205.0 L 166.1 205.0 L 172.1 205.0 L 178.1 205.0 L 184.1 205.0 L 190.1 205.0 L 196.1 205.0 L 202.1 205.0 L 208.2 205.0 L 214.2 205.0 L 220.2 205.0 L 226.2 205.0 L 232.2 205.0 L 238.2 205.0 L 244.2 205.0 L 250.3 205.0 L 256.3 205.0 L 262.3 205.1 L 268.4 205.1 L 274.4 205.1 L 280.4 205.1 L 286.5 205.1 L 292.5 205.1 L 298.4 205.1 L 304.0 205.2 L 309.4 205.2 L 314.5 205.2 L 319.4 205.2 L 324.1 205.3 L 328.6 205.3 L 333.0 205.4 L 337.1 205.4 L 341.1 205.5 L 344.9 205.6 L 348.6 205.7 L 352.2 205.8 L 355.6 205.9 L 359.0 206.0 L 362.2 206.2 L 365.3 206.3 L 368.3 206.5 L 371.3 206.8 L 374.1 207.0 L 376.9 207.3 L 379.7 207.6 L 382.3 208.0 L 384.9 208.3 L 387.5 208.8 L 390.0 209.3 L 392.4 209.8 L 394.8 210.4 L 397.2 211.0 L 399.5 211.7 L 401.7 212.5 L 404.0 213.4 L 406.1 214.3 L 408.2 215.2 L 410.3 216.3 L 412.3 217.4 L 414.3 218.6 L 416.1 219.9 L 418.0 221.2 L 419.7 222.7 L 421.4 224.2 L 423.0 225.7 L 424.6 227.4 L 426.1 229.1 L 427.4 230.9 L 428.8 232.7 L 430.0 234.6 L 431.1 236.5 L 432.2 238.5 L 433.1 240.6 L 434.0 242.6 L 434.8 244.8 L 435.6 246.9 L 436.2 249.1 L 436.8 251.4 L 437.3 253.6 L 437.7 255.9 L 438.1 258.3 L 438.4 260.6 L 438.6 263.0 L 438.8 265.5 L 438.9 267.9 L 439.0 270.4 L 439.0 273.0 L 438.9 275.6 L 438.9 278.2 L 438.8 280.9 L 438.6 283.7 L 438.4 286.5 L 438.2 289.4 L 437.9 292.3 L 437.6 295.4 L 437.3 298.5 L 436.9 301.7 L 436.5 305.1 L 436.1 308.5 L 435.7 312.1 L 435.2 315.7 L 434.7 319.6 L 434.1 323.5 L 433.6 327.6 L 433.0 331.9 L 432.4 336.4 L 431.7 341.0 L 431.0 345.9 L 430.3 350.9 L 429.5 356.2 L 428.7 361.7 L 427.9 367.5 L 427.0 373.5 L 426.1 379.5 L 425.2 385.4 L 424.3 391.4 L 423.4 397.4 L 422.6 403.3 L 421.7 409.3 L 420.8 415.2 L 419.9 421.2 L 419.0 427.1 L 418.1 433.1 L 417.2 439.0 L 416.4 445.0 L 415.5 450.9 L 414.6 456.9 L 413.7 462.8 L 412.8 468.8 L 411.9 474.7 L 411.0 480.6 L 410.2 486.6 L 409.3 492.5 L 408.4 498.5 L 407.5 504.4 L 406.6 510.3 L 405.7 516.3 L 404.8 522.2 L 404.0 528.2 L 403.1 534.1" fill="none" stroke="#2ed3c6" stroke-width="2.2" opacity="0.9" stroke-linecap="round"/>
  <path d="M -38.0 220.0 L -32.0 220.0 L -26.0 220.0 L -20.0 220.0 L -14.0 220.0 L -8.0 220.0 L -2.0 220.0 L 4.0 220.0 L 10.0 220.0 L 16.0 220.0 L 22.0 220.0 L 28.0 220.0 L 34.0 220.0 L 40.0 220.0 L 46.0 220.0 L 52.0 220.0 L 58.0 220.0 L 64.0 220.0 L 70.0 220.0 L 76.0 220.0 L 82.0 220.0 L 88.0 220.0 L 94.0 220.0 L 100.0 220.0 L 106.0 220.0 L 112.0 220.0 L 118.0 220.0 L 124.0 220.0 L 130.0 220.0 L 136.0 220.0 L 142.0 220.0 L 148.0 220.0 L 154.0 220.0 L 160.0 220.0 L 166.0 220.0 L 172.0 220.0 L 178.0 220.0 L 184.1 220.0 L 190.1 220.0 L 196.1 220.0 L 202.1 220.0 L 208.1 220.0 L 214.1 220.0 L 220.1 220.0 L 226.1 220.0 L 232.1 220.0 L 238.1 220.0 L 244.1 220.0 L 250.1 220.0 L 256.1 220.0 L 262.1 220.0 L 268.2 220.0 L 274.2 220.0 L 280.2 220.0 L 286.2 220.0 L 292.1 220.0 L 297.8 220.0 L 303.1 220.0 L 308.2 220.1 L 313.1 220.1 L 317.7 220.1 L 322.2 220.1 L 326.4 220.1 L 330.4 220.1 L 334.3 220.1 L 337.9 220.2 L 341.5 220.2 L 344.8 220.2 L 348.0 220.3 L 351.1 220.3 L 354.1 220.4 L 357.0 220.4 L 359.7 220.5 L 362.3 220.5 L 364.9 220.6 L 367.3 220.7 L 369.7 220.8 L 372.0 221.0 L 374.2 221.1 L 376.4 221.3 L 378.5 221.5 L 380.5 221.7 L 382.5 221.9 L 384.4 222.2 L 386.3 222.5 L 388.2 222.8 L 390.0 223.2 L 391.7 223.6 L 393.4 224.1 L 395.1 224.6 L 396.8 225.2 L 398.4 225.9 L 399.9 226.6 L 401.4 227.4 L 402.9 228.3 L 404.3 229.2 L 405.6 230.2 L 406.8 231.4 L 408.0 232.5 L 409.0 233.8 L 410.0 235.2 L 410.8 236.7 L 411.5 238.2 L 412.0 239.8 L 412.4 241.5" fill="none" stroke="#ff5e5e" stroke-width="2.2" opacity="0.9" stroke-linecap="round"/>
  <path d="M -38.0 235.0 L -32.0 235.0 L -26.0 235.0 L -20.0 235.0 L -14.0 235.0 L -8.0 235.0 L -2.0 235.0 L 4.0 235.0 L 10.0 235.0 L 16.0 235.0 L 22.0 235.0 L 28.0 235.0 L 34.0 235.0 L 40.0 235.0 L 46.0 235.0 L 52.0 235.0 L 58.0 235.0 L 64.0 235.0 L 70.0 235.0 L 76.0 235.0 L 82.0 235.0 L 88.0 235.0 L 94.0 235.0 L 100.0 235.0 L 106.0 235.0 L 112.0 235.0 L 118.0 235.0 L 124.0 235.0 L 130.0 235.0 L 136.0 235.0 L 142.0 235.0 L 148.0 235.0 L 154.0 235.0 L 160.0 235.0 L 166.0 235.0 L 172.0 235.0 L 178.0 235.0 L 184.0 235.0 L 190.0 235.0 L 196.0 235.0 L 202.0 235.0 L 208.0 235.0 L 214.0 235.0 L 220.0 235.0 L 226.0 235.0 L 232.0 235.0 L 238.0 235.0 L 244.0 235.0 L 250.0 235.0 L 256.0 235.0 L 262.0 235.0 L 268.0 235.0 L 274.0 235.0 L 280.1 235.0 L 286.1 235.0 L 291.8 235.0 L 297.3 235.0 L 302.5 235.0 L 307.4 235.0 L 312.1 235.0 L 316.6 235.0 L 320.8 235.0 L 324.9 235.0 L 328.7 235.0 L 332.4 235.0 L 335.9 235.0 L 339.2 235.0 L 342.3 235.0 L 345.3 235.0 L 348.2 235.0 L 350.9 235.0 L 353.5 235.1 L 356.0 235.1 L 358.4 235.1 L 360.6 235.1 L 362.8 235.1 L 364.8 235.1 L 366.8 235.1 L 368.7 235.2 L 370.5 235.2 L 372.2 235.2 L 373.9 235.3 L 375.5 235.3 L 377.0 235.3 L 378.5 235.4 L 379.9 235.5 L 381.3 235.5 L 382.6 235.6 L 383.9 235.7 L 385.2 235.8 L 386.4 235.9 L 387.6 236.1 L 388.7 236.3 L 389.9 236.4 L 391.0 236.7 L 392.0 236.9 L 393.1 237.2" fill="none" stroke="#ff5e5e" stroke-width="2.2" opacity="0.9" stroke-linecap="round"/>
  <path d="M -38.0 250.0 L -32.0 250.0 L -26.0 250.0 L -20.0 250.0 L -14.0 250.0 L -8.0 250.0 L -2.0 250.0 L 4.0 250.0 L 10.0 250.0 L 16.0 250.0 L 22.0 250.0 L 28.0 250.0 L 34.0 250.0 L 40.0 250.0 L 46.0 250.0 L 52.0 250.0 L 58.0 250.0 L 64.0 250.0 L 70.0 250.0 L 76.0 250.0 L 82.0 250.0 L 88.0 250.0 L 94.0 250.0 L 100.0 250.0 L 106.0 250.0 L 112.0 250.0 L 118.0 250.0 L 124.0 250.0 L 130.0 250.0 L 136.0 250.0 L 142.0 250.0 L 148.0 250.0 L 154.0 250.0 L 160.0 250.0 L 166.0 250.0 L 172.0 250.0 L 178.0 250.0 L 184.0 250.0 L 190.0 250.0 L 196.0 250.0 L 202.0 250.0 L 208.0 250.0 L 214.0 250.0 L 220.0 250.0 L 226.0 250.0 L 232.0 250.0 L 238.0 250.0 L 244.0 250.0 L 250.0 250.0 L 256.0 250.0 L 262.0 250.0 L 268.0 250.0 L 274.0 250.0 L 280.0 250.0 L 286.0 250.0 L 291.7 250.0 L 297.1 250.0 L 302.3 250.0 L 307.1 250.0 L 311.8 250.0 L 316.2 250.0 L 320.4 250.0 L 324.4 250.0 L 328.2 250.0 L 331.7 250.0 L 335.2 250.0 L 338.4 250.0 L 341.5 250.0 L 344.4 250.0 L 347.2 250.0 L 349.8 250.0 L 352.3 250.0 L 354.7 250.0 L 357.0 250.0 L 359.1 250.0 L 361.2 250.0 L 363.1 250.0 L 365.0 250.0 L 366.7 250.0 L 368.4 250.0 L 370.0 250.0 L 371.5 250.0 L 372.9 250.0 L 374.2 250.0 L 375.5 250.0 L 376.8 250.0 L 377.9 250.0 L 379.0 250.0 L 380.1 250.0 L 381.1 250.0 L 382.0 250.0 L 382.9 250.0 L 383.8 250.0 L 384.6 250.0 L 385.3 250.0" fill="none" stroke="#ff5e5e" stroke-width="2.2" opacity="0.9" stroke-linecap="round"/>
  <path d="M -38.0 265.0 L -32.0 265.0 L -26.0 265.0 L -20.0 265.0 L -14.0 265.0 L -8.0 265.0 L -2.0 265.0 L 4.0 265.0 L 10.0 265.0 L 16.0 265.0 L 22.0 265.0 L 28.0 265.0 L 34.0 265.0 L 40.0 265.0 L 46.0 265.0 L 52.0 265.0 L 58.0 265.0 L 64.0 265.0 L 70.0 265.0 L 76.0 265.0 L 82.0 265.0 L 88.0 265.0 L 94.0 265.0 L 100.0 265.0 L 106.0 265.0 L 112.0 265.0 L 118.0 265.0 L 124.0 265.0 L 130.0 265.0 L 136.0 265.0 L 142.0 265.0 L 148.0 265.0 L 154.0 265.0 L 160.0 265.0 L 166.0 265.0 L 172.0 265.0 L 178.0 265.0 L 184.0 265.0 L 190.0 265.0 L 196.0 265.0 L 202.0 265.0 L 208.0 265.0 L 214.0 265.0 L 220.0 265.0 L 226.0 265.0 L 232.0 265.0 L 238.0 265.0 L 244.0 265.0 L 250.0 265.0 L 256.0 265.0 L 262.0 265.0 L 268.0 265.0 L 274.0 265.0 L 280.1 265.0 L 286.1 265.0 L 291.8 265.0 L 297.3 265.0 L 302.5 265.0 L 307.4 265.0 L 312.1 265.0 L 316.6 265.0 L 320.8 265.0 L 324.9 265.0 L 328.7 265.0 L 332.4 265.0 L 335.9 265.0 L 339.2 265.0 L 342.3 265.0 L 345.3 265.0 L 348.2 265.0 L 350.9 265.0 L 353.5 264.9 L 356.0 264.9 L 358.4 264.9 L 360.6 264.9 L 362.8 264.9 L 364.8 264.9 L 366.8 264.9 L 368.7 264.8 L 370.5 264.8 L 372.2 264.8 L 373.9 264.7 L 375.5 264.7 L 377.0 264.7 L 378.5 264.6 L 379.9 264.5 L 381.3 264.5 L 382.6 264.4 L 383.9 264.3 L 385.2 264.2 L 386.4 264.1 L 387.6 263.9 L 388.7 263.7 L 389.9 263.6 L 391.0 263.3 L 392.0 263.1 L 393.1 262.8" fill="none" stroke="#ff5e5e" stroke-width="2.2" opacity="0.9" stroke-linecap="round"/>
  <path d="M -38.0 280.0 L -32.0 280.0 L -26.0 280.0 L -20.0 280.0 L -14.0 280.0 L -8.0 280.0 L -2.0 280.0 L 4.0 280.0 L 10.0 280.0 L 16.0 280.0 L 22.0 280.0 L 28.0 280.0 L 34.0 280.0 L 40.0 280.0 L 46.0 280.0 L 52.0 280.0 L 58.0 280.0 L 64.0 280.0 L 70.0 280.0 L 76.0 280.0 L 82.0 280.0 L 88.0 280.0 L 94.0 280.0 L 100.0 280.0 L 106.0 280.0 L 112.0 280.0 L 118.0 280.0 L 124.0 280.0 L 130.0 280.0 L 136.0 280.0 L 142.0 280.0 L 148.0 280.0 L 154.0 280.0 L 160.0 280.0 L 166.0 280.0 L 172.0 280.0 L 178.0 280.0 L 184.1 280.0 L 190.1 280.0 L 196.1 280.0 L 202.1 280.0 L 208.1 280.0 L 214.1 280.0 L 220.1 280.0 L 226.1 280.0 L 232.1 280.0 L 238.1 280.0 L 244.1 280.0 L 250.1 280.0 L 256.1 280.0 L 262.1 280.0 L 268.2 280.0 L 274.2 280.0 L 280.2 280.0 L 286.2 280.0 L 292.1 280.0 L 297.8 280.0 L 303.1 280.0 L 308.2 279.9 L 313.1 279.9 L 317.7 279.9 L 322.2 279.9 L 326.4 279.9 L 330.4 279.9 L 334.3 279.9 L 337.9 279.8 L 341.5 279.8 L 344.8 279.8 L 348.0 279.7 L 351.1 279.7 L 354.1 279.6 L 357.0 279.6 L 359.7 279.5 L 362.3 279.5 L 364.9 279.4 L 367.3 279.3 L 369.7 279.2 L 372.0 279.0 L 374.2 278.9 L 376.4 278.7 L 378.5 278.5 L 380.5 278.3 L 382.5 278.1 L 384.4 277.8 L 386.3 277.5 L 388.2 277.2 L 390.0 276.8 L 391.7 276.4 L 393.4 275.9 L 395.1 275.4 L 396.8 274.8 L 398.4 274.1 L 399.9 273.4 L 401.4 272.6 L 402.9 271.7 L 404.3 270.8 L 405.6 269.8 L 406.8 268.6 L 408.0 267.5 L 409.0 266.2 L 410.0 264.8 L 410.8 263.3 L 411.5 261.8 L 412.0 260.2 L 412.4 258.5" fill="none" stroke="#ff5e5e" stroke-width="2.2" opacity="0.9" stroke-linecap="round"/>
  <path d="M -38.0 295.0 L -32.0 295.0 L -26.0 295.0 L -20.0 295.0 L -14.0 295.0 L -8.0 295.0 L -2.0 295.0 L 4.0 295.0 L 10.0 295.0 L 16.0 295.0 L 22.0 295.0 L 28.0 295.0 L 34.0 295.0 L 40.0 295.0 L 46.0 295.0 L 52.0 295.0 L 58.0 295.0 L 64.0 295.0 L 70.0 295.0 L 76.0 295.0 L 82.0 295.0 L 88.0 295.0 L 94.0 295.0 L 100.0 295.0 L 106.0 295.0 L 112.1 295.0 L 118.1 295.0 L 124.1 295.0 L 130.1 295.0 L 136.1 295.0 L 142.1 295.0 L 148.1 295.0 L 154.1 295.0 L 160.1 295.0 L 166.1 295.0 L 172.1 295.0 L 178.1 295.0 L 184.1 295.0 L 190.1 295.0 L 196.1 295.0 L 202.1 295.0 L 208.2 295.0 L 214.2 295.0 L 220.2 295.0 L 226.2 295.0 L 232.2 295.0 L 238.2 295.0 L 244.2 295.0 L 250.3 295.0 L 256.3 295.0 L 262.3 294.9 L 268.4 294.9 L 274.4 294.9 L 280.4 294.9 L 286.5 294.9 L 292.5 294.9 L 298.4 294.9 L 304.0 294.8 L 309.4 294.8 L 314.5 294.8 L 319.4 294.8 L 324.1 294.7 L 328.6 294.7 L 333.0 294.6 L 337.1 294.6 L 341.1 294.5 L 344.9 294.4 L 348.6 294.3 L 352.2 294.2 L 355.6 294.1 L 359.0 294.0 L 362.2 293.8 L 365.3 293.7 L 368.3 293.5 L 371.3 293.2 L 374.1 293.0 L 376.9 292.7 L 379.7 292.4 L 382.3 292.0 L 384.9 291.7 L 387.5 291.2 L 390.0 290.7 L 392.4 290.2 L 394.8 289.6 L 397.2 289.0 L 399.5 288.3 L 401.7 287.5 L 404.0 286.6 L 406.1 285.7 L 408.2 284.8 L 410.3 283.7 L 412.3 282.6 L 414.3 281.4 L 416.1 280.1 L 418.0 278.8 L 419.7 277.3 L 421.4 275.8 L 423.0 274.3 L 424.6 272.6 L 426.1 270.9 L 427.4 269.1 L 428.8 267.3 L 430.0 265.4 L 431.1 263.5 L 432.2 261.5 L 433.1 259.4 L 434.0 257.4 L 434.8 255.2 L 435.6 253.1 L 436.2 250.9 L 436.8 248.6 L 437.3 246.4 L 437.7 244.1 L 438.1 241.7 L 438.4 239.4 L 438.6 237.0 L 438.8 234.5 L 438.9 232.1 L 439.0 229.6 L 439.0 227.0 L 438.9 224.4 L 438.9 221.8 L 438.8 219.1 L 438.6 216.3 L 438.4 213.5 L 438.2 210.6 L 437.9 207.7 L 437.6 204.6 L 437.3 201.5 L 436.9 198.3 L 436.5 194.9 L 436.1 191.5 L 435.7 187.9 L 435.2 184.3 L 434.7 180.4 L 434.1 176.5 L 433.6 172.4 L 433.0 168.1 L 432.4 163.6 L 431.7 159.0 L 431.0 154.1 L 430.3 149.1 L 429.5 143.8 L 428.7 138.3 L 427.9 132.5 L 427.0 126.5 L 426.1 120.5 L 425.2 114.6 L 424.3 108.6 L 423.4 102.6 L 422.6 96.7 L 421.7 90.7 L 420.8 84.8 L 419.9 78.8 L 419.0 72.9 L 418.1 66.9 L 417.2 61.0 L 416.4 55.0 L 415.5 49.1 L 414.6 43.1 L 413.7 37.2 L 412.8 31.2 L 411.9 25.3 L 411.0 19.4 L 410.2 13.4 L 409.3 7.5 L 408.4 1.5 L 407.5 -4.4 L 406.6 -10.3 L 405.7 -16.3 L 404.8 -22.2 L 404.0 -28.2 L 403.1 -34.1" fill="none" stroke="#2ed3c6" stroke-width="2.2" opacity="0.9" stroke-linecap="round"/>
  <path d="M -38.0 310.0 L -32.0 310.0 L -26.0 310.0 L -20.0 310.0 L -14.0 310.0 L -8.0 310.0 L -2.0 310.0 L 4.0 310.0 L 10.0 310.0 L 16.0 310.0 L 22.0 310.0 L 28.0 310.0 L 34.0 310.0 L 40.0 310.0 L 46.0 310.0 L 52.0 310.0 L 58.0 310.0 L 64.1 310.0 L 70.1 310.0 L 76.1 310.0 L 82.1 310.0 L 88.1 310.0 L 94.1 310.0 L 100.1 310.0 L 106.1 310.0 L 112.1 310.0 L 118.1 310.0 L 124.1 310.0 L 130.1 310.0 L 136.1 310.0 L 142.1 310.0 L 148.1 310.0 L 154.1 310.0 L 160.1 310.0 L 166.2 310.0 L 172.2 310.0 L 178.2 310.0 L 184.2 310.0 L 190.2 310.0 L 196.2 310.0 L 202.2 310.0 L 208.3 310.0 L 214.3 309.9 L 220.3 309.9 L 226.3 309.9 L 232.4 309.9 L 238.4 309.9 L 244.4 309.9 L 250.5 309.9 L 256.5 309.9 L 262.5 309.9 L 268.6 309.9 L 274.6 309.8 L 280.7 309.8 L 286.8 309.8 L 292.9 309.8 L 299.0 309.7 L 304.9 309.7 L 310.6 309.6 L 316.1 309.6 L 321.4 309.5 L 326.5 309.4 L 331.4 309.3 L 336.1 309.2 L 340.6 309.1 L 345.0 309.0 L 349.2 308.8 L 353.4 308.7 L 357.3 308.5 L 361.2 308.2 L 365.0 308.0 L 368.7 307.7 L 372.2 307.4 L 375.7 307.1 L 379.2 306.7 L 382.5 306.2 L 385.8 305.8 L 389.0 305.2 L 392.2 304.7 L 395.3 304.0 L 398.4 303.3 L 401.4 302.6 L 404.4 301.8 L 407.3 300.9 L 410.2 300.0 L 413.1 298.9 L 415.9 297.9 L 418.7 296.7 L 421.4 295.5 L 424.1 294.2 L 426.8 292.8 L 429.4 291.4 L 432.0 289.9 L 434.6 288.3 L 437.2 286.6 L 439.7 284.9 L 442.2 283.1 L 444.7 281.2 L 447.1 279.3 L 449.6 277.3 L 452.0 275.2 L 454.5 273.1 L 457.0 270.9 L 459.4 268.6 L 461.9 266.2 L 464.4 263.8 L 466.9 261.2 L 469.5 258.6 L 472.1 255.9 L 474.8 253.1 L 477.5 250.2 L 480.3 247.3 L 483.1 244.2 L 486.0 240.9 L 489.1 237.6 L 492.2 234.1 L 495.4 230.5 L 498.7 226.8 L 502.1 222.9 L 505.7 218.9 L 509.4 214.7 L 513.2 210.3 L 517.2 205.7 L 521.2 201.1 L 525.2 196.5 L 529.2 191.9 L 533.2 187.4 L 537.1 182.8 L 541.1 178.2 L 545.0 173.7 L 549.0 169.1 L 552.9 164.6 L 556.9 160.0 L 560.8 155.4 L 564.8 150.9 L 568.7 146.3 L 572.7 141.8 L 576.6 137.2 L 580.5 132.7 L 584.5 128.1 L 588.4 123.6 L 592.3 119.0 L 596.3 114.5 L 600.2 109.9 L 604.1 105.4 L 608.0 100.8 L 612.0 96.3 L 615.9 91.7 L 619.8 87.2 L 623.7 82.7 L 627.7 78.1 L 631.6 73.6 L 635.5 69.0 L 639.5 64.5 L 643.4 59.9 L 647.3 55.4 L 651.2 50.8 L 655.2 46.3 L 659.1 41.8 L 663.0 37.2 L 666.9 32.7 L 670.8 28.1 L 674.8 23.6 L 678.7 19.0 L 682.6 14.5 L 686.5 9.9 L 690.5 5.4 L 694.4 0.9 L 698.3 -3.7 L 702.2 -8.2 L 706.2 -12.8 L 710.1 -17.3 L 714.0 -21.9 L 717.9 -26.4 L 721.8 -30.9 L 725.8 -35.5" fill="none" stroke="#2ed3c6" stroke-width="2.2" opacity="0.9" stroke-linecap="round"/>
  <path d="M -38.0 325.0 L -32.0 325.0 L -26.0 325.0 L -20.0 325.0 L -14.0 325.0 L -8.0 325.0 L -2.0 325.0 L 4.0 325.0 L 10.0 325.0 L 16.0 325.0 L 22.0 325.0 L 28.1 325.0 L 34.1 325.0 L 40.1 325.0 L 46.1 325.0 L 52.1 325.0 L 58.1 325.0 L 64.1 325.0 L 70.1 325.0 L 76.1 325.0 L 82.1 325.0 L 88.1 325.0 L 94.1 325.0 L 100.1 325.0 L 106.1 325.0 L 112.1 325.0 L 118.1 325.0 L 124.2 325.0 L 130.2 325.0 L 136.2 325.0 L 142.2 325.0 L 148.2 325.0 L 154.2 325.0 L 160.2 325.0 L 166.2 325.0 L 172.3 324.9 L 178.3 324.9 L 184.3 324.9 L 190.3 324.9 L 196.3 324.9 L 202.4 324.9 L 208.4 324.9 L 214.4 324.9 L 220.5 324.9 L 226.5 324.9 L 232.5 324.9 L 238.6 324.9 L 244.6 324.8 L 250.7 324.8 L 256.7 324.8 L 262.8 324.8 L 268.8 324.8 L 274.9 324.7 L 281.0 324.7 L 287.1 324.6 L 293.2 324.6 L 299.3 324.5 L 305.5 324.5 L 311.6 324.4 L 317.6 324.3 L 323.3 324.2 L 328.8 324.0 L 334.1 323.9 L 339.3 323.7 L 344.3 323.5 L 349.2 323.3 L 353.9 323.1 L 358.5 322.8 L 363.0 322.5 L 367.4 322.2 L 371.6 321.8 L 375.8 321.4 L 380.0 321.0 L 384.0 320.5 L 388.0 319.9 L 391.9 319.3 L 395.7 318.7 L 399.5 318.0 L 403.3 317.2 L 407.0 316.4 L 410.7 315.5 L 414.3 314.5 L 417.9 313.5 L 421.5 312.4 L 425.1 311.2 L 428.6 309.9 L 432.1 308.6 L 435.7 307.3 L 439.2 305.8 L 442.7 304.3 L 446.2 302.7 L 449.7 301.0 L 453.3 299.3 L 456.8 297.5 L 460.4 295.6 L 464.1 293.6 L 467.7 291.6 L 471.5 289.5 L 475.2 287.3 L 479.1 285.0 L 483.0 282.7 L 487.0 280.2 L 491.2 277.7 L 495.4 275.0 L 499.7 272.3 L 504.2 269.4 L 508.8 266.5 L 513.5 263.4 L 518.5 260.2 L 523.6 256.9 L 528.7 253.6 L 533.8 250.2 L 538.9 246.8 L 544.0 243.5 L 549.0 240.1 L 554.1 236.8 L 559.1 233.4 L 564.2 230.1 L 569.2 226.7 L 574.3 223.4 L 579.3 220.0 L 584.3 216.7 L 589.3 213.3 L 594.4 210.0 L 599.4 206.6 L 604.4 203.3 L 609.4 199.9 L 614.4 196.6 L 619.4 193.2 L 624.4 189.9 L 629.4 186.5 L 634.4 183.2 L 639.4 179.8 L 644.4 176.5 L 649.4 173.2 L 654.4 169.8 L 659.4 166.5 L 664.4 163.1 L 669.4 159.8 L 674.4 156.4 L 679.4 153.1 L 684.4 149.8 L 689.4 146.4 L 694.4 143.1 L 699.4 139.7 L 704.3 136.4 L 709.3 133.0 L 714.3 129.7 L 719.3 126.4 L 724.3 123.0 L 729.3 119.7 L 734.3 116.3 L 739.3 113.0 L 744.3 109.7 L 749.2 106.3 L 754.2 103.0 L 759.2 99.6 L 764.2 96.3 L 769.2 92.9 L 774.2 89.6 L 779.2 86.3 L 784.2 82.9 L 789.1 79.6 L 794.1 76.2 L 799.1 72.9 L 804.1 69.6 L 809.1 66.2 L 814.1 62.9" fill="none" stroke="#2ed3c6" stroke-width="2.2" opacity="0.9" stroke-linecap="round"/>
  <path d="M -38.0 340.0 L -32.0 340.0 L -26.0 340.0 L -20.0 340.0 L -14.0 340.0 L -8.0 340.0 L -1.9 340.0 L 4.1 340.0 L 10.1 340.0 L 16.1 340.0 L 22.1 340.0 L 28.1 340.0 L 34.1 340.0 L 40.1 340.0 L 46.1 340.0 L 52.1 340.0 L 58.1 340.0 L 64.1 340.0 L 70.1 340.0 L 76.1 340.0 L 82.1 340.0 L 88.1 340.0 L 94.2 340.0 L 100.2 340.0 L 106.2 340.0 L 112.2 340.0 L 118.2 340.0 L 124.2 340.0 L 130.2 340.0 L 136.2 339.9 L 142.3 339.9 L 148.3 339.9 L 154.3 339.9 L 160.3 339.9 L 166.3 339.9 L 172.4 339.9 L 178.4 339.9 L 184.4 339.9 L 190.4 339.9 L 196.5 339.9 L 202.5 339.9 L 208.5 339.9 L 214.6 339.8 L 220.6 339.8 L 226.7 339.8 L 232.7 339.8 L 238.8 339.8 L 244.8 339.7 L 250.9 339.7 L 257.0 339.7 L 263.0 339.7 L 269.1 339.6 L 275.2 339.6 L 281.3 339.5 L 287.4 339.5 L 293.6 339.4 L 299.7 339.3 L 305.8 339.2 L 312.0 339.1 L 318.2 339.0 L 324.4 338.8 L 330.5 338.6 L 336.4 338.4 L 342.1 338.2 L 347.6 338.0 L 353.0 337.7 L 358.3 337.4 L 363.4 337.0 L 368.5 336.6 L 373.4 336.2 L 378.3 335.7 L 383.1 335.2 L 387.8 334.6 L 392.4 334.0 L 397.0 333.3 L 401.5 332.6 L 406.0 331.8 L 410.4 330.9 L 414.9 330.0 L 419.2 329.0 L 423.6 327.9 L 428.0 326.8 L 432.3 325.6 L 436.7 324.3 L 441.0 323.0 L 445.4 321.6 L 449.8 320.1 L 454.2 318.6 L 458.7 317.0 L 463.2 315.3 L 467.8 313.5 L 472.4 311.7 L 477.1 309.8 L 481.8 307.8 L 486.7 305.7 L 491.7 303.6 L 496.8 301.3 L 502.0 299.0 L 507.3 296.6 L 512.9 294.1 L 518.5 291.5 L 524.1 288.9 L 529.7 286.3 L 535.2 283.7 L 540.7 281.1 L 546.3 278.4 L 551.8 275.8 L 557.3 273.2 L 562.8 270.6 L 568.3 267.9 L 573.7 265.3 L 579.2 262.7 L 584.7 260.1 L 590.1 257.4 L 595.6 254.8 L 601.0 252.2 L 606.4 249.6 L 611.9 246.9 L 617.3 244.3 L 622.7 241.7 L 628.2 239.0 L 633.6 236.4 L 639.0 233.8 L 644.4 231.2 L 649.9 228.5 L 655.3 225.9 L 660.7 223.3 L 666.1 220.7 L 671.5 218.0 L 676.9 215.4 L 682.3 212.8 L 687.8 210.2 L 693.2 207.5 L 698.6 204.9 L 704.0 202.3 L 709.4 199.7 L 714.8 197.0 L 720.2 194.4 L 725.6 191.8 L 731.0 189.2 L 736.4 186.5 L 741.8 183.9 L 747.2 181.3 L 752.6 178.7 L 758.0 176.0 L 763.4 173.4 L 768.8 170.8 L 774.2 168.2 L 779.6 165.5 L 785.0 162.9 L 790.4 160.3 L 795.8 157.7 L 801.2 155.0 L 806.6 152.4 L 812.0 149.8 L 817.4 147.2 L 822.8 144.5 L 828.2 141.9 L 833.6 139.3 L 839.0 136.7" fill="none" stroke="#2ed3c6" stroke-width="2.2" opacity="0.9" stroke-linecap="round"/>
  <path d="M -38.0 355.0 L -32.0 355.0 L -25.9 355.0 L -19.9 355.0 L -13.9 355.0 L -7.9 355.0 L -1.9 355.0 L 4.1 355.0 L 10.1 355.0 L 16.1 355.0 L 22.1 355.0 L 28.1 355.0 L 34.1 355.0 L 40.1 355.0 L 46.1 355.0 L 52.1 355.0 L 58.1 355.0 L 64.1 355.0 L 70.2 355.0 L 76.2 355.0 L 82.2 355.0 L 88.2 355.0 L 94.2 355.0 L 100.2 354.9 L 106.2 354.9 L 112.2 354.9 L 118.3 354.9 L 124.3 354.9 L 130.3 354.9 L 136.3 354.9 L 142.3 354.9 L 148.4 354.9 L 154.4 354.9 L 160.4 354.9 L 166.4 354.9 L 172.5 354.9 L 178.5 354.9 L 184.5 354.9 L 190.6 354.8 L 196.6 354.8 L 202.6 354.8 L 208.7 354.8 L 214.7 354.8 L 220.8 354.7 L 226.8 354.7 L 232.9 354.7 L 239.0 354.7 L 245.0 354.6 L 251.1 354.6 L 257.2 354.6 L 263.3 354.5 L 269.4 354.5 L 275.5 354.4 L 281.6 354.3 L 287.7 354.2 L 293.9 354.2 L 300.0 354.1 L 306.2 353.9 L 312.4 353.8 L 318.6 353.6 L 324.8 353.5 L 331.0 353.3 L 337.3 353.0 L 343.6 352.8 L 349.7 352.4 L 355.7 352.1 L 361.6 351.7 L 367.4 351.3 L 373.1 350.8 L 378.6 350.3 L 384.1 349.8 L 389.5 349.2 L 394.9 348.5 L 400.2 347.8 L 405.4 347.0 L 410.6 346.1 L 415.8 345.2 L 421.0 344.3 L 426.1 343.2 L 431.3 342.1 L 436.4 341.0 L 441.6 339.7 L 446.8 338.4 L 452.0 337.1 L 457.2 335.6 L 462.5 334.1 L 467.9 332.5 L 473.3 330.8 L 478.8 329.1 L 484.4 327.3 L 490.2 325.4 L 496.0 323.5 L 501.9 321.4 L 507.8 319.4 L 513.7 317.3 L 519.5 315.2 L 525.3 313.1 L 531.1 311.0 L 536.9 308.9 L 542.7 306.8 L 548.4 304.7 L 554.1 302.5 L 559.9 300.4 L 565.6 298.2 L 571.3 296.1 L 577.0 294.0 L 582.6 291.8 L 588.3 289.7 L 594.0 287.5 L 599.7 285.4 L 605.3 283.2 L 611.0 281.0 L 616.6 278.9 L 622.3 276.7 L 627.9 274.6 L 633.6 272.4 L 639.2 270.3 L 644.8 268.1 L 650.5 266.0 L 656.1 263.8 L 661.7 261.6 L 667.3 259.5 L 673.0 257.3 L 678.6 255.2 L 684.2 253.0 L 689.8 250.9 L 695.4 248.7 L 701.1 246.5 L 706.7 244.4 L 712.3 242.2 L 717.9 240.1 L 723.5 237.9 L 729.1 235.8 L 734.7 233.6 L 740.3 231.4 L 746.0 229.3 L 751.6 227.1 L 757.2 225.0 L 762.8 222.8 L 768.4 220.7 L 774.0 218.5 L 779.6 216.3 L 785.2 214.2 L 790.8 212.0 L 796.4 209.9 L 802.0 207.7 L 807.6 205.6 L 813.2 203.4 L 818.8 201.2 L 824.4 199.1 L 830.1 196.9 L 835.7 194.8" fill="none" stroke="#2ed3c6" stroke-width="2.2" opacity="0.9" stroke-linecap="round"/>
  <!-- event horizon -->
  <circle cx="400" cy="250" r="15.0" fill="#05060a" stroke="#3a4250" stroke-width="1"/>
  <!-- legend -->
  <g font-size="14" fill="#cdd6ec">
    <rect x="540" y="24" width="232" height="118" rx="10" fill="#11151c" stroke="#2a3340"/>
    <text x="556" y="48" font-size="13" fill="#9aa4b2">Light rays vs. impact parameter b</text>
    <line x1="556" y1="68" x2="586" y2="68" stroke="#ff5e5e" stroke-width="3"/><text x="594" y="72">captured  (b &lt; b_c)</text>
    <line x1="556" y1="92" x2="586" y2="92" stroke="#a99cff" stroke-width="3"/><text x="594" y="96">orbiting  (b ≈ b_c)</text>
    <line x1="556" y1="116" x2="586" y2="116" stroke="#2ed3c6" stroke-width="3"/><text x="594" y="120">escaping  (b &gt; b_c)</text>
  </g>
  <text x="400" y="310.97" text-anchor="middle" font-size="12" fill="#9aa4b2">b_c = 3√3·GM/c² ≈ 2.6 rₛ  —  the shadow's edge</text>
</svg>
